<svg enable-background="new 0 0 1860 1140" preserveAspectRatio="none" viewBox="0 0 1860 1140" xmlns="http://www.w3.org/2000/svg"><path d="m0 1140h1860v-1140h-1860zm140.2-410.2c2.6-39.1 8.1-77.5 23.8-113.8 23.5-54.4 64.6-91.9 115.7-119.5 54.7-29.6 113.5-48.7 174-60.9 78.5-15.8 142.8-55 197.8-111.3 34.9-35.7 68.4-72.7 103.1-108.5 43.5-45 91.3-84.5 150.3-107.7 106.6-41.9 210.7-34.7 312.2 17.6 96.6 49.8 175.2 120.9 242 205.5 64.1 81.2 113.4 170.3 139.8 271 19.1 72.6 24.2 145.8 3.5 218.9-19.7 69.4-56 127.6-118.7 166.5-41 25.4-86.6 36.3-134.2 39.3-14.3.9-28.7.1-43 .1-65.9-.6-130.3-12-194-27.8-82.5-20.5-164.5-42.9-246.9-63.7-49.7-12.5-99.9-22.4-151.4-23.4-44.2-.9-84.9 7.8-122.5 34-73.3 51-154.8 61.7-240.5 40-65.1-16.5-120.4-49.8-162.9-102.6-36.1-44.8-51.9-96.1-48.1-153.7z" fill="#fff"/></svg>