<svg enable-background="new 0 0 120 120" viewBox="0 0 120 120" xmlns="http://www.w3.org/2000/svg"><path d="m52.52 20.82h1.17 28.12 3.12v3.12 28.13 1.17l-.78 1.17-34.37 34.38-2.34 1.95-2.34-1.95-28.13-28.13-1.95-2.34 1.95-2.34 34.38-34.38zm2.54 6.25-31.25 31.25 23.63 23.63 31.25-31.25v-23.63zm33.01 3.12h6.25 3.12v3.13 30.08 1.17l-.78.98-33.01 32.61-2.15 1.95-2.34-1.95-5.86-6.25 4.3-4.3 3.91 3.91 29.69-29.69v-25.39h-3.12v-6.25zm-21 4.01c.59-.59 1.33-.88 2.25-.88.91 0 1.66.29 2.25.88s.88 1.34.88 2.25-.29 1.66-.88 2.25-1.34.88-2.25.88-1.66-.29-2.25-.88-.88-1.33-.88-2.25.29-1.67.88-2.25z" fill="#6c7e92"/></svg>