<svg enable-background="new 0 0 1860 1140" preserveAspectRatio="none" viewBox="0 0 1860 1140" xmlns="http://www.w3.org/2000/svg"><path d="m0 0v1140h1860v-1140zm1706 807c-.3.9-.8 1.9-.9 2.8-1.2 17.1-5.8 33.4-11.4 49.5-14.9 42.6-40.1 78-75.1 106.2-30.5 24.5-65 41.7-101.8 54.3-42.3 14.5-85.8 23.4-130.3 27.1-28.2 2.4-56.4 4.1-84.6 4.8-20.1.5-40.2-.9-60.3-1.8-16.8-.8-33.6-1.4-50.3-3.3-30.4-3.4-60.8-7.2-91.1-11.8-53.6-8.2-106.4-19.8-158.6-34.5-34.3-9.7-69.2-15.8-104.7-17.1-18.6-.7-37.2.7-55.8 1.7-30.4 1.7-60.1 8-89.5 15.4-45.4 11.6-89.1 28.4-133 44.7-27.5 10.2-55 20.4-83.9 26.2-4.6.9-9.1 1.8-13.7 2.7-10.7 0-21.3 0-32 0-1.6-.4-3.2-.9-4.8-1.2-16.1-3.4-30.1-10.8-41.4-22.7-12-12.7-20.6-27.7-27.2-43.9-4.9-12-9.7-24.1-15-35.9-16.4-36.4-36.8-70.2-67.1-96.9-11.8-10.4-24.6-19.9-37.7-28.6-15.4-10.2-31.7-18.9-47.3-28.8-12.7-8-22.2-19.1-27.1-33.5-1.8-5.3-2.9-10.9-4.4-16.4 0-11.3 0-22.7 0-34 .3-1.1.8-2.2 1-3.3 2.5-17.3 8.9-33.1 18.4-47.6 12.2-18.6 28.6-33.2 45.1-47.7 15.8-13.8 31.6-27.6 46.6-42.2 11-10.8 19.3-23.8 24.5-38.5 7.3-20.7 9.3-42 8.6-63.8-.7-23.9-5.9-46.9-13.6-69.3-6.8-19.9-14.4-39.4-20.9-59.4-6.1-18.8-9.9-38-5.7-58 3.8-17.7 12.5-33 22.4-47.6 16.7-24.5 36.8-45.9 59.4-65.1 35.4-30.1 74.7-54.1 117.1-72.8 58.1-25.6 118.9-40.8 182.3-45.8 5.6-.4 11.2-1.2 16.8-1.9h72c1.3.3 2.5.8 3.8.9 16.9 1.7 33.8 2.8 50.6 5 58.1 7.6 114.3 22.9 168.8 44.3 38.5 15.1 77.1 29.8 116.8 41.5 53.6 15.8 107.9 28.7 163 38.2 64.2 11 128.6 20.8 192.9 31.1 48.5 7.8 97.2 15.1 144.4 29.2 26.9 8 53.2 17.8 75.1 36.2 16.6 13.9 26.7 31.4 28.5 53.2 1.9 23.7-4.2 46-13.4 67.5-7.7 17.9-16.4 35.4-23.5 53.5-12.2 31.1-19.6 63.1-18.1 96.9 1.2 27.4 8.8 52.9 21.6 76.8 11.4 21.3 24.4 41.6 36.6 62.5 11.6 19.8 21.5 40.3 25.4 63.2.9 5.1 1.7 10.1 2.6 15.2-.1 7.5-.1 15.1-.1 22.8z" fill="#fff"/></svg>