<svg xmlns="http://www.w3.org/2000/svg" width="2000" height="2000"><g fill="none" fill-rule="evenodd" stroke="#00CF9C" stroke-linecap="round" stroke-linejoin="round" opacity=".3"><path d="M735.2 737.372L621.893 850.678c-9.01 9.01-23.615 9.01-32.616 0-9.002-9.01-9.002-23.607 0-32.608l113.308-113.306c9.01-9.01 23.607-9.01 32.617 0 9.001 9.001 9.001 23.607 0 32.608zm191.141 191.916l-171.81 171.822c-8.952 8.944-23.477 8.944-32.436 0-8.952-8.96-8.952-23.485 0-32.444l171.818-171.814c8.952-8.952 23.469-8.952 32.428 0 8.96 8.96 8.96 23.477 0 32.436z"/><path d="M1445.213 1446.862c-.023.03-.046.046-.076.076-105.226 104.852-234.401 184.567-363.738 224.45-129.382 39.907-194.93-68.11-205.402-99.217l-55.237-166.108c-10.93-34.142-2.34-70.48 22.329-95.07l272.075-271.188c8.957-8.936 23.491-8.936 32.449 0 8.965 8.936 8.965 23.422 0 32.35l-272.067 271.189c-12.484 12.435-16.745 31.047-11.138 48.576l55.13 165.772c.313.968 41.933 102.809 148.299 70 122.33-37.733 244.804-113.414 344.859-213.105a.294.294 0 0 1 .068-.068c99.955-99.637 175.853-221.668 213.725-343.66 32.916-106.026-69.25-147.503-70.306-147.854L1117.007 762.6c-100.054-36.208-189.507-93.148-265.802-169.195L637.55 380.445c-18.489-18.429-48.581-18.429-67.07 0L360.074 590.172c-8.965 8.928-23.5 8.928-32.457 0-8.957-8.936-8.957-23.422 0-32.358l210.405-209.712c36.389-36.27 95.595-36.27 131.984 0l213.656 212.952c71.506 71.29 155.313 124.638 249.065 158.567l438.656 160.23c30.62 10.231 138.99 75.566 98.953 204.527-40.037 128.96-119.99 257.693-225.123 362.484z"/><path d="M751.958 755.226L638.724 868.457c-17.999 18.007-47.183 18.007-65.19 0-17.991-17.998-17.991-47.174 0-65.18l113.242-113.232c17.999-17.999 47.183-17.999 65.182 0 18 17.999 18 47.182 0 65.18zm190.193 189.437l-171.224 171.235c-17.85 17.842-46.792 17.842-64.642 0-17.85-17.85-17.85-46.801 0-64.651L877.509 880.02c17.85-17.85 46.792-17.85 64.642 0 17.858 17.843 17.858 46.793 0 64.643z"/><path d="M1461.155 1461.944a.686.686 0 0 1-.069.076c-107.749 107.302-240.205 188.925-372.945 229.848-133.824 41.242-215.3-58.764-233.8-113.66l-55.216-165.974c-13.622-42.522-2.882-87.663 27.865-118.29l271.892-270.846c17.911-17.842 46.952-17.842 64.871 0 17.904 17.842 17.904 46.778 0 64.612l-271.9 270.847c-6.475 6.45-8.53 15.953-5.496 25.418l55.01 165.327c.115.22 32.657 82.08 119.652 55.261 117.045-36.072 239.22-111.58 335.211-207.17l.07-.061c95.892-95.521 171.657-217.192 207.892-333.83 26.924-86.664-55.263-119.08-56.096-119.408-.397-.122-.344-.115-.749-.252l-438.298-159.996c-103.101-37.29-195.31-95.94-273.948-174.282L621.58 396.88c-9.7-9.663-24.897-9.67-34.598 0l-210.27 209.455c-17.911 17.834-46.953 17.834-64.864 0-17.91-17.841-17.91-46.778 0-64.62L522.12 332.26c45.301-45.126 119.017-45.126 164.326 0l213.52 212.692c69.075 68.815 150.007 120.307 240.526 153.051l437.908 159.844c55.24 18.855 154.671 99.892 113.43 232.673-41.098 132.286-123.016 264.191-230.674 371.424z"/><path d="M765.9 769.58L654.094 881.384c-26.663 26.661-69.883 26.661-96.546 0-26.654-26.662-26.654-69.889 0-96.543l111.807-111.81c26.662-26.654 69.883-26.654 96.545 0 26.662 26.661 26.662 69.88 0 96.55zm194.958 192.11L788.34 1133.643c-26.972 26.884-70.716 26.884-97.696 0-26.972-26.892-26.972-70.485 0-97.377l172.511-171.955c26.98-26.884 70.717-26.884 97.704 0 26.98 26.892 26.98 70.485 0 97.377z"/><path d="M1538.98 964.488c.359.13.672.22.94.312-.314-.106-.62-.206-.94-.312zm-62.84 512.928l-.085.084c-110.185 109.968-245.79 193.68-381.839 235.704-149.78 46.277-241.157-66.465-261.943-128.327l-55.177-166.183c-.076-.251-.16-.495-.229-.731-16.069-50.263-3.183-104.298 33.604-141.025l271.516-271.067c26.825-26.796 70.33-26.796 97.155 0 26.832 26.782 26.832 70.215 0 96.997l-271.51 271.074c-.114.183-.266.937.085 2.15l54.459 164.063c5.046 11.691 30.298 60.879 91.421 42 113.43-35.05 232.012-108.557 325.312-201.674.015-.023.045-.046.06-.069 93.216-93.056 166.813-211.391 201.92-324.697 19.039-61.397-30.94-86.548-42.26-91.364-.16-.054-.328-.115-.489-.168l-437.687-160.131C994.39 765.595 899.488 705.105 818.57 624.319L605.353 411.456c-.695-.701-1.466-.701-2.16 0L393.218 621.08c-26.833 26.789-70.33 26.789-97.162 0-26.833-26.782-26.833-70.208 0-96.997L506.03 314.452c54.17-54.08 142.316-54.088 196.485 0l213.21 212.863c66.596 66.488 144.598 116.24 231.82 147.853l437.146 159.933c62.169 21.439 173.56 112.475 127.475 261.167-42.115 135.88-125.948 271.242-236.027 381.148z"/><path d="M781.583 786.732L669.208 899.107c-35.725 35.733-93.651 35.733-129.384 0-35.725-35.725-35.725-93.65 0-129.376L652.2 657.348c35.726-35.718 93.651-35.725 129.384 0 35.733 35.733 35.726 93.651 0 129.384zm192.11 192.269l-171.5 171.494c-35.757 35.756-93.733 35.756-129.49 0-35.755-35.764-35.755-93.74 0-129.496l171.495-171.494c35.756-35.756 93.732-35.756 129.496 0 35.756 35.756 35.756 93.732 0 129.496z"/><path d="M1530.597 984.634c.895.343 1.66.579 2.233.777-.75-.259-1.491-.518-2.233-.777zm-38.13 507.593c-.031.03-.054.045-.085.068-112.926 112.495-252.08 198.162-391.815 241.244-166.163 51.231-267.698-74.082-290.846-142.81l-55.27-166.164-.321-.982c-18.699-58.4-3.647-121.262 39.293-164.046l271.895-270.92c35.822-35.685 93.913-35.685 129.728 0 35.83 35.701 35.83 93.582 0 129.268l-262.362 261.42 50.21 150.976c9.15 19.492 27.497 39.707 63.442 28.632 110.143-33.964 225.447-105.365 316.333-195.892l.061-.061c90.795-90.467 162.417-205.307 196.52-315.113 11.206-36.081-9.488-54.385-29.188-63.419l-437.92-159.894C982.81 784.979 884.953 722.726 801.527 639.61L603.142 441.943l-195.136 194.43c-35.822 35.7-93.906 35.7-129.728 0-35.83-35.686-35.83-93.56 0-129.26L488.55 297.602c63.182-62.954 166.002-62.962 229.192 0l213.52 212.748c64.307 64.074 139.575 112 223.75 142.452l437.675 159.804c69.275 24 192.88 124.91 141.83 289.283-43.253 139.291-129.224 277.912-242.05 390.338zm-887.46-658.298l111.396-111.395"/><path d="M988.522 995.195L817.367 1166.34c-44.601 44.608-116.928 44.608-161.53 0-44.608-44.608-44.608-116.927 0-161.535L826.986 833.66c44.608-44.608 116.936-44.608 161.537 0 44.6 44.608 44.6 116.935 0 161.535zm-249.636 88.096l172.713-170.67"/><path d="M1522.082 1008.188l.932.343c.986.366 1.98.717 2.982 1.045-.925-.305-2.278-.724-3.914-1.388zm78.823-214.894L1163.29 633.283c-80.987-29.345-153.443-75.547-215.349-137.326L734.41 282.902c-72.126-71.977-189.494-71.97-261.629 0L262.508 492.716c-44.782 44.684-44.782 117.126 0 161.818 44.783 44.677 117.384 44.677 162.166 0l178.922-178.539 133.88 133.588c-35.47-6.102-73.266 4.424-100.656 31.755L524.138 753.774c-44.782 44.684-44.782 117.134 0 161.811 44.782 44.684 117.383 44.684 162.165 0l112.682-112.436c28.384-28.322 38.72-67.79 31.113-104.281 75.53 65.272 160.973 115.471 254.604 149.393l436.608 159.652c23.858 11.976 19.425 26.24 16.489 35.737-33.04 106.517-102.583 218.09-190.825 306.14l-.061.06c-88.341 88.118-200.205 157.548-306.901 190.5-9.426 2.907-23.545 7.27-35.479-15.79l-45.172-136.013 252.357-251.806c44.79-44.692 44.79-117.134 0-161.818-44.775-44.685-117.383-44.685-162.166 0l-271.896 271.302c-49.025 48.926-66.24 120.743-44.92 187.418.13.412.26.816.398 1.22l55.301 166.503c25.464 75.723 137.038 213.887 319.37 157.593 143.237-44.227 285.732-132.047 401.258-247.267.023-.03.053-.06.076-.084 115.419-115.174 203.408-257.328 247.747-400.313 55.936-180.386-79.695-291.357-155.98-318.001z"/><path d="M1515.857 1036.491c-31.958 102.987-99.405 211.027-185.063 296.448l-.06.061c-85.75 85.49-194.141 152.789-297.36 184.644a46.913 46.913 0 0 1-3.935 1.044 38.996 38.996 0 0 1-3.913-4.954l-39.783-119.714 242.276-241.602c53.715-53.574 53.715-140.428 0-193.994-51.009-50.869-132.05-53.338-186.101-7.606 9.315-32.609 6.236-67.931-9.14-98.734a848.28 848.28 0 0 0 44.162 17.428l434.355 158.733c1.887 1.182 4.034 2.835 5.609 4.306a45.925 45.925 0 0 1-1.047 3.94zM894.645 776.874c-22.689 2.477-44.812 10.631-64.23 24.341 11.723-16.522 19.433-34.98 22.971-54.108a830.714 830.714 0 0 0 41.259 29.767zm714.236-5.151l-437.663-159.938c-77.779-28.174-147.396-72.542-206.895-131.877L750.879 267.052c-81.042-80.818-212.91-80.818-293.959 0L246.724 476.67c-53.714 53.567-53.714 140.428 0 193.995 53.722 53.566 140.816 53.566 194.53 0l162.65-162.201 80.95 80.742c-23.423 5.8-45.638 17.688-63.955 35.947l-112.64 112.33c-53.715 53.567-53.715 140.42 0 193.995 45.568 45.442 115.093 52.18 167.951 20.523l-35.526 35.436c-53.722 53.567-53.722 140.42 0 193.995 36.29 36.19 87.789 47.828 133.96 35.124l-12.952 12.917c-55.105 54.953-74.47 135.558-50.535 210.364.152.487.313.975.473 1.455l55.312 166.423c10.89 32.38 40.716 84.3 88.905 124.013 72.788 60.013 164.72 77.053 258.86 48.003 146.67-45.26 292.46-135.002 410.534-252.713l.076-.083c117.975-117.642 207.942-263.009 253.358-409.335 29.123-93.888 12.035-185.558-48.136-258.146-38.744-46.746-89.058-76.17-121.658-87.73z"/><path d="M1314.249 1316.462c-.015.015-.046.038-.061.053-78.855 78.63-177.283 141.326-272.29 173.839l-30.08-90.503 232.121-231.493c56.74-56.588 62.078-145.027 16.006-207.609l228.73 83.595c-32.539 95.004-95.472 193.375-174.426 272.118zm-245.363-425.537l24.124 8.82c-7.912 1.888-15.678 4.455-23.284 7.554a157.626 157.626 0 0 0-1.481-16.618c.213.076.427.16.641.244zm546.702-140.876l-436.789-159.627c-74.556-27.007-141.3-69.559-198.375-126.482L767.127 251.22c-89.913-89.687-236.23-89.687-326.15 0L230.926 460.71c-62.628 62.46-62.628 163.725 0 226.185 62.627 62.46 164.163 62.46 226.79 0l146.332-145.94 39.68 39.566c-13.99 7.326-27.125 16.847-38.886 28.575L492.28 721.36c-62.627 62.46-62.627 163.732 0 226.192 31.25 31.165 72.189 46.77 113.151 46.831-42.52 62.255-36.19 147.746 19.176 202.963 26.804 26.733 60.741 41.927 95.694 45.781-41.276 58.31-53.35 133.07-30.89 203.268.175.563.366 1.134.55 1.698l55.296 166.398c38.29 113.793 180.261 246.885 376.017 186.474 150.066-46.314 299.109-138.02 419.683-258.226l.084-.091c120.474-120.145 212.41-268.775 258.856-418.493 60.115-193.732-70.806-334.63-184.308-374.105z"/><path d="M1671.449 1672.16c-141.401 140.95-317.416 248.857-495.625 303.839-314.021 96.914-542.577-118.952-604.559-303.176l-56.317-169.43c-17.582-54.943-23.675-116.26-17.49-174.184a313.151 313.151 0 0 1-2.776-2.737c-58.847-58.68-94.998-138.892-100.189-221.59a347.65 347.65 0 0 1-32.275-28.418c-46.21-46.071-78.838-105.315-92.919-168.224-63.09-14.049-122.496-46.575-168.707-92.654-134.123-133.74-134.123-351.359 0-485.106l210.27-209.668c161.544-161.083 424.409-161.083 585.96 0l213.52 212.908c37.992 37.892 82.223 66.157 131.477 83.994l437.61 159.9c99.349 34.615 193.376 111.695 251.184 206.064 50.859 82.988 100.051 218.747 45.569 394.244-55.148 177.752-163.34 353.249-304.65 494.154l-.083.084z"/><path d="M1655.578 1656.321c-138.875 138.434-311.625 244.375-486.424 298.298-299.403 92.396-517.254-113.215-576.313-288.735l-56.314-169.419c-17.835-55.73-23.074-117.562-15.113-175.771a323.662 323.662 0 0 1-10.715-10.204c-57.812-57.637-91.694-136.253-94.042-217.317a323.607 323.607 0 0 1-38.485-32.8c-47.083-46.945-78.524-107.32-89.675-171.584-64.452-11.119-125.002-42.47-172.084-89.407-125.24-124.883-125.24-328.085 0-452.96l210.378-209.76c152.673-152.238 401.109-152.238 553.79 0l213.62 212.993c40.406 40.296 87.488 70.357 139.924 89.361l437.767 159.948c94.753 33.02 184.459 106.55 239.625 196.597 48.413 78.99 95.22 208.312 43.25 375.725-54.095 174.345-160.32 346.57-299.105 484.951l-.084.084z"/><path d="M1637.152 1637.924c-136.14 135.692-305.354 239.492-476.454 292.286-284.33 87.735-491.146-107.326-547.183-273.845l-56.229-169.147c-18.099-56.565-22.331-118.904-12.285-177.305a297.107 297.107 0 0 1-19.061-17.428c-56.748-56.572-88.155-133.513-87.338-212.884a299.613 299.613 0 0 1-45.044-36.936c-48.07-47.927-78.01-109.588-85.542-175.408-66.008-7.51-127.844-37.355-175.921-85.282-116.17-115.834-116.17-304.299 0-420.125l210.14-209.518c143.573-143.157 377.19-143.15 520.764 0l213.387 212.755c42.76 42.633 92.609 74.45 148.158 94.567l437.224 159.74c90.02 31.375 175.256 101.27 227.68 186.834 45.908 74.9 90.249 197.567 40.873 356.628-52.959 170.655-157.043 339.345-293.085 474.984l-.084.084z"/><path d="M1624.17 1624.988c-133.68 133.25-299.712 235.138-467.503 286.894-269.864 83.27-466.08-101.645-519.217-259.544l-56.249-169.223c-18.469-57.719-21.513-120.783-8.94-179.523a276.164 276.164 0 0 1-28.006-24.384c-55.897-55.73-84.698-131.244-80.293-209.191-18.874-11.392-36.388-25.093-52.226-40.876-49.435-49.294-77.548-112.732-80.53-180.668-68.141-2.966-131.762-30.994-181.205-80.288-107.343-107.02-107.343-281.16 0-388.18l210.365-209.733c134.776-134.37 354.073-134.37 488.856 0l213.608 212.965c45.19 45.054 97.914 78.702 156.701 99.99l437.617 159.883c85.47 29.782 166.429 96.17 216.238 177.457 43.485 70.955 85.463 187.247 38.575 338.293-51.928 167.331-154.109 332.856-287.706 466.044l-.084.084z"/><path d="M1607.62 1608.466c-131.027 130.587-293.604 230.382-457.794 281.038-254.945 78.658-440.245-95.803-490.392-244.821l-56.184-169.029c-18.879-59.007-20.469-122.837-4.838-181.852a252.412 252.412 0 0 1-37.635-30.89c-54.45-54.283-80.842-130.03-72.396-205.557-21.99-11.628-42.137-26.502-60.045-44.355-50.635-50.473-76.737-117.45-73.81-187.2-69.965 2.925-137.133-23.096-187.768-73.577-98.345-98.035-98.345-257.562 0-355.604L376.99 187.03c125.76-125.375 330.382-125.375 456.142 0l213.48 212.826c47.549 47.402 103.06 82.811 164.993 105.243l437.28 159.748c80.803 28.155 157.341 90.941 204.446 167.809 40.99 66.886 80.543 176.594 36.213 319.396-50.82 163.732-150.906 325.796-281.84 456.33l-.085.083z"/><path d="M1125.811 1378.37c44.468-30.082 89.655-59.531 140.517-110.234 54.05-53.874 100.46-118.497 132.44-184.042l-38.686-14.141c-3.533 55.055-22.812 98.15-66.783 146.924-32.263 33.962-98.824 94.293-98.824 94.293l-68.664 67.2zm464.917 213.24c-128.51 128.063-287.824 225.9-448.59 275.49-240.32 74.145-414.912-90.069-462.118-230.346l-56.191-169.032c-19.44-60.727-19.187-125.57.32-184.987a228.598 228.598 0 0 1-48.375-36.836c-53.545-53.386-76.969-129.482-63.517-202.742-25.672-11.32-48.812-27.17-68.993-47.295-52.559-52.395-75.745-125.053-64.52-196.583-71.745 11.191-144.63-11.908-197.196-64.31-89.45-89.178-89.45-234.265 0-323.435L391.89 201.847c116.887-116.515 307.057-116.515 423.944 0l213.592 212.927c49.975 49.818 108.33 87.028 173.469 110.614l437.448 159.8c76.204 26.568 148.416 85.801 192.876 158.345 38.542 62.9 75.7 166.15 33.893 300.87-49.76 160.31-147.881 319.104-276.3 447.122l-.084.084z"/><path d="M1069.61 1429.22c75.33-33.048 149.766-84.287 211.768-146.077 62.591-62.392 114.3-137.285 147.375-213.016l-93.16-34.03c5.32 59.94-15.927 119.886-59.687 163.491l-212.28 211.622 5.983 18.01zm503.545 144.85c-125.846 125.408-281.712 221.159-438.876 269.633-225.411 69.53-389.095-84.24-433.313-215.637l-56.125-168.839c-20.107-62.803-17.486-128.928 7.069-188.768-22.484-10.185-43.126-24.4-60.65-41.869-53.305-53.135-72.839-129.552-52.923-200.537-29.828-10.071-56.966-26.854-79.503-49.32-57.241-57.059-73.749-139.585-49.546-211.332-71.975 24.134-154.764 7.671-212.006-49.38-80.45-80.203-80.45-210.693 0-290.896l210.21-209.534c107.872-107.529 283.378-107.529 391.25 0l213.45 212.772c52.343 52.169 113.497 91.15 181.766 115.863l437.103 159.667c71.517 24.934 139.327 80.568 181.07 148.681 36.056 58.835 70.798 155.523 31.532 281.998-48.643 156.726-144.685 312.074-270.432 437.413l-.076.084z"/><path d="M1299.918 1301.493c-.015.016-.038.046-.06.061-70.507 70.258-156.932 127.352-242.096 160.53l-18.213-54.77 222.406-221.694c49.624-49.465 64.886-120.226 45.778-182.785l153.659 56.134c-33.147 85.219-90.646 171.924-161.474 242.524zM475.57 704.786c-71.66 71.439-70.33 188.433 1.338 259.872 26.433 26.348 58.937 42.94 93.024 49.861-27.94 66.454-14.81 146.01 39.47 200.117 21.883 21.813 47.926 36.927 75.583 45.418-30.753 58.931-37.459 128.61-16.34 194.59l.642 1.944 55.397 166.597c41.282 122.68 194.245 266.19 405.006 201.183 153.766-47.422 306.347-141.215 429.665-264.093.023-.03.054-.054.07-.084 123.226-122.817 217.29-274.894 264.888-428.213 64.672-208.325-76.332-359.99-198.695-402.657l-437.273-159.73c-71.47-25.868-135.484-66.66-190.239-121.239L784.546 235.47c-98.98-98.663-260.033-98.663-359.006 0L215.223 445.113c-71.668 71.439-71.668 187.26 0 258.69 71.66 71.439 188.686 72.422 260.347.983z"/><path d="M1131.333 1054.456l-271.856 270.702c-18.918 18.845-24.857 46.282-16.755 71.59l55.156 165.722c5.366 15.915 58.786 120.84 176.733 84.505 130.673-40.262 256.814-121.632 354.024-218.406 97.202-96.775 178.896-222.395 219.33-352.513 36.49-117.446-68.883-170.64-84.866-175.975l-438.247-159.923c-96.744-34.98-184.308-90.952-257.273-163.607L654.096 363.967c-27.562-27.446-71.887-27.446-99.45 0L344.406 573.324m331.119 379.154l152.274-151.252m-352.58-97.087l129.79-128.769"/></g></svg>